# Blender 5.0.1
# www.blender.org
mtllib EmptyBox.mtl
o Floor
v -1.000000 0.000000 1.000000
v 1.000000 0.000000 1.000000
v -1.000000 0.000000 -1.000000
v 1.000000 0.000000 -1.000000
vn -0.0000 1.0000 -0.0000
vt 0.000000 0.000000
vt 1.000000 0.000000
vt 1.000000 1.000000
vt 0.000000 1.000000
s 0
usemtl floor
f 1/1/1 2/2/1 4/3/1 3/4/1
o Ceiling
v -1.000000 2.000000 1.000000
v 1.000000 2.000000 1.000000
v -1.000000 2.000000 -1.000000
v 1.000000 2.000000 -1.000000
vn -0.0000 1.0000 -0.0000
vt 0.000000 0.000000
vt 1.000000 0.000000
vt 1.000000 1.000000
vt 0.000000 1.000000
s 0
usemtl floor
f 5/5/2 6/6/2 8/7/2 7/8/2
o Left_Wall
v -1.000000 0.000000 -1.000000
v 1.000000 0.000000 -1.000000
v -1.000000 2.000000 -1.000000
v 1.000000 2.000000 -1.000000
vn -0.0000 -0.0000 1.0000
vt 0.000000 0.000000
vt 1.000000 0.000000
vt 1.000000 1.000000
vt 0.000000 1.000000
s 0
usemtl left_wall
f 9/9/3 10/10/3 12/11/3 11/12/3
o Back_wall
v 1.000000 0.000000 1.000000
v 1.000000 2.000000 1.000000
v 1.000000 0.000000 -1.000000
v 1.000000 2.000000 -1.000000
vn -1.0000 -0.0000 -0.0000
vt 0.000000 0.000000
vt 1.000000 0.000000
vt 1.000000 1.000000
vt 0.000000 1.000000
s 0
usemtl floor
f 13/13/4 14/14/4 16/15/4 15/16/4
o Light
v -0.250000 1.990000 0.250000
v 0.250000 1.990000 0.250000
v -0.250000 1.990000 -0.250000
v 0.250000 1.990000 -0.250000
vn -0.0000 1.0000 -0.0000
vt 0.000000 0.000000
vt 1.000000 0.000000
vt 1.000000 1.000000
vt 0.000000 1.000000
s 0
usemtl light
f 17/17/5 18/18/5 20/19/5 19/20/5
o Right_Wall
v -1.000000 0.000000 1.000000
v 1.000000 0.000000 1.000000
v -1.000000 2.000000 1.000000
v 1.000000 2.000000 1.000000
vn -0.0000 -0.0000 1.0000
vt 0.000000 0.000000
vt 1.000000 0.000000
vt 1.000000 1.000000
vt 0.000000 1.000000
s 0
usemtl right_wall
f 21/21/6 22/22/6 24/23/6 23/24/6
