# Blender 5.0.1
# www.blender.org
mtllib side_lit_empty_box.mtl
o Floor
v -1.000000 0.000000 1.000000
v 1.000000 0.000000 1.000000
v -1.000000 0.000000 -1.000000
v 1.000000 0.000000 -1.000000
vn -0.0000 1.0000 -0.0000
vt 0.000000 0.000000
vt 1.000000 0.000000
vt 1.000000 1.000000
vt 0.000000 1.000000
s 0
usemtl floor
f 1/1/1 2/2/1 4/3/1 3/4/1
o Ceiling
v -1.000000 2.000000 1.000000
v 1.000000 2.000000 1.000000
v -1.000000 2.000000 -1.000000
v 1.000000 2.000000 -1.000000
vn -0.0000 1.0000 -0.0000
vt 0.000000 0.000000
vt 1.000000 0.000000
vt 1.000000 1.000000
vt 0.000000 1.000000
s 0
usemtl floor
f 5/5/2 6/6/2 8/7/2 7/8/2
o Left_wall
v -1.000000 0.000000 1.000000
v 1.000000 0.000000 1.000000
v -1.000000 2.000000 1.000000
v 1.000000 2.000000 1.000000
v -1.000000 2.000000 1.000000
v -1.000000 0.000000 1.000000
v 1.000000 0.000000 1.000000
v 1.000000 2.000000 1.000000
v -1.000000 1.333333 1.000000
v -1.000000 0.666667 1.000000
v -0.333333 0.000000 1.000000
v 0.333333 0.000000 1.000000
v 1.000000 0.666667 1.000000
v 1.000000 1.333333 1.000000
v 0.333333 2.000000 1.000000
v -0.333333 2.000000 1.000000
v -0.333333 0.666667 1.000000
v -0.333333 1.333333 1.000000
v 0.333333 0.666667 1.000000
v 0.333333 1.333333 1.000000
vn -0.0000 -0.0000 1.0000
vt 0.666667 0.666667
vt 1.000000 0.666667
vt 1.000000 1.000000
vt 0.666667 1.000000
vt 0.000000 0.000000
vt 0.000000 0.333333
vt 0.000000 0.666667
vt 0.000000 1.000000
vt 1.000000 0.000000
vt 0.666667 0.000000
vt 0.333333 0.000000
vt 1.000000 0.333333
vt 0.333333 1.000000
vt 0.333333 0.666667
vt 0.333333 0.333333
vt 0.666667 0.333333
s 0
usemtl Left_wall
f 28/9/3 22/10/3 16/11/3 23/12/3
f 14/13/3 18/14/3 17/15/3 13/16/3 11/16/3 9/13/3
f 15/17/3 20/18/3 19/19/3 14/13/3 9/13/3 10/17/3
f 16/11/3 22/10/3 21/20/3 15/17/3 10/17/3 12/11/3
f 13/16/3 24/21/3 23/12/3 16/11/3 12/11/3 11/16/3
f 17/15/3 26/22/3 24/21/3 13/16/3
f 26/22/3 28/9/3 23/12/3 24/21/3
f 14/13/3 19/19/3 25/23/3 18/14/3
f 18/14/3 25/23/3 26/22/3 17/15/3
f 19/19/3 20/18/3 27/24/3 25/23/3
f 20/18/3 15/17/3 21/20/3 27/24/3
f 27/24/3 21/20/3 22/10/3 28/9/3
o Right_wall
v -1.000000 0.000000 -1.000000
v 1.000000 0.000000 -1.000000
v -1.000000 2.000000 -1.000000
v 1.000000 2.000000 -1.000000
vn -0.0000 -0.0000 1.0000
vt 0.000000 0.000000
vt 1.000000 0.000000
vt 1.000000 1.000000
vt 0.000000 1.000000
s 0
usemtl Right_wall
f 29/25/4 30/26/4 32/27/4 31/28/4
o Back_wall
v 1.000000 0.000000 1.000000
v 1.000000 2.000000 1.000000
v 1.000000 0.000000 -1.000000
v 1.000000 2.000000 -1.000000
vn -1.0000 -0.0000 -0.0000
vt 0.000000 0.000000
vt 1.000000 0.000000
vt 1.000000 1.000000
vt 0.000000 1.000000
s 0
usemtl floor
f 33/29/5 34/30/5 36/31/5 35/32/5
o Light
v -0.250000 0.750000 3.000000
v 0.250000 0.750000 3.000000
v -0.250000 1.250000 3.000000
v 0.250000 1.250000 3.000000
vn -0.0000 -0.0000 1.0000
vt 0.000000 0.000000
vt 1.000000 0.000000
vt 1.000000 1.000000
vt 0.000000 1.000000
s 0
usemtl Light
f 37/33/6 38/34/6 40/35/6 39/36/6
